<?xml version="1.0" encoding="UTF-8" standalone="no"?>
<!-- Created with Inkscape (http://www.inkscape.org/) -->

<svg
   xmlns:dc="http://purl.org/dc/elements/1.1/"
   xmlns:cc="http://creativecommons.org/ns#"
   xmlns:rdf="http://www.w3.org/1999/02/22-rdf-syntax-ns#"
   xmlns:svg="http://www.w3.org/2000/svg"
   xmlns="http://www.w3.org/2000/svg"
   xmlns:sodipodi="http://sodipodi.sourceforge.net/DTD/sodipodi-0.dtd"
   xmlns:inkscape="http://www.inkscape.org/namespaces/inkscape"
   width="105.97545mm"
   height="12.000089mm"
   viewBox="0 0 375.50356 42.519999"
   id="svg2"
   version="1.1"
   inkscape:version="0.91 r13725"
   sodipodi:docname="logo.svg">
  <defs
     id="defs4" />
  <sodipodi:namedview
     id="base"
     pagecolor="#ffffff"
     bordercolor="#666666"
     borderopacity="1.0"
     inkscape:pageopacity="0.0"
     inkscape:pageshadow="2"
     inkscape:zoom="1.0775758"
     inkscape:cx="330.11879"
     inkscape:cy="-451.52798"
     inkscape:document-units="px"
     inkscape:current-layer="layer1"
     showgrid="false"
     inkscape:window-width="2560"
     inkscape:window-height="1299"
     inkscape:window-x="1920"
     inkscape:window-y="1"
     inkscape:window-maximized="1"
     fit-margin-top="0"
     fit-margin-left="0"
     fit-margin-right="0"
     fit-margin-bottom="0" />
  <metadata
     id="metadata7">
    <rdf:RDF>
      <cc:Work
         rdf:about="">
        <dc:format>image/svg+xml</dc:format>
        <dc:type
           rdf:resource="http://purl.org/dc/dcmitype/StillImage" />
        <dc:title></dc:title>
      </cc:Work>
    </rdf:RDF>
  </metadata>
  <g
     inkscape:label="Layer 1"
     inkscape:groupmode="layer"
     id="layer1"
     transform="translate(-41.928454,-32.13312)">
    <g
       id="Altes_Logo"
       transform="translate(15.0744,7.1850839)" />
    <g
       id="Auszeichnung_Alt"
       transform="translate(15.0744,7.1850839)" />
    <g
       id="g4646"
       transform="translate(5.568054,3.712036)">
      <path
         id="path4531"
         d="m 57.6224,28.421084 -21.262,21.262 21.263,21.258 21.263,-21.258 -21.264,-21.262 z m 17.102,21.175 c -0.322,0.321 -4.395,4.394 -8.486,8.481 0.385,-0.494 0.581,-1.098 0.581,-1.764 0,-2.197 -2.172,-2.646 -2.878,-2.822 -2.429,-0.625 -2.891,-0.719 -2.891,-1.465 0,-0.814 0.787,-1.1 1.466,-1.1 1.018,0 1.846,0.299 1.914,1.465 l 2.062,0 c 0,-2.238 -1.859,-3.121 -3.881,-3.121 -0.932,0 -1.888,0.277 -2.588,0.828 0.824,-0.975 1.525,-2.053 2.075,-3.215 1.029,-2.131 2.727,-3.935 4.792,-5.121 3.858,3.859 7.529,7.528 7.834,7.834 z m -24.632,9.525 c 0.001,-0.002 0.001,-0.004 0.001,-0.006 0,-0.035 -0.116,-0.172 -0.252,-0.32 1.213,-2.137 3.082,-3.876 5.315,-4.914 1.598,-0.773 3.029,-1.832 4.243,-3.098 -0.251,0.396 -0.41,0.863 -0.41,1.42 0,1.818 1.452,2.375 2.89,2.755 1.425,0.38 2.877,0.556 2.877,1.601 0,0.99 -1.14,1.209 -1.886,1.209 -1.14,0 -2.145,-0.502 -2.145,-1.791 l -2.063,0 c -0.026,2.389 1.982,3.445 4.126,3.445 1.3,0 2.296,-0.324 2.975,-0.867 -3.985,3.982 -7.846,7.844 -8.119,8.115 -0.59,-0.59 -7.552,-7.549 -7.552,-7.549 z m 7.598,-26.557 c 0.285,0.285 3.509,3.508 7.077,7.076 -2.288,1.477 -4.112,3.529 -5.303,5.998 -0.49,1.035 -1.134,1.982 -1.89,2.828 -0.104,-0.3 -0.185,-0.596 -0.201,-0.837 -0.068,-0.978 -0.367,-1.995 -1.412,-2.267 l 0,-0.027 c 1.073,-0.435 1.534,-1.289 1.534,-2.43 0,-1.466 -1.1,-2.674 -2.838,-2.674 l -4.635,0 c 3.799,-3.798 7.368,-7.366 7.668,-7.667 z m -2.327,10.668 c 0,0.977 -0.516,1.385 -1.465,1.385 l -2.334,0 0,-2.729 2.334,0 c 0.949,0 1.465,0.407 1.465,1.344 z m -7.676,13.48 c -0.072,-0.068 -0.125,-0.123 -0.125,-0.123 0.033,-0.059 -0.676,-0.766 -0.676,-0.766 -0.03,0.05 -4.999,-4.907 -6.275,-6.182 0.289,-0.289 4.6,-4.6 8.821,-8.82 l 0,9.102 2.131,0 0,-3.787 2.13,0 c 1.073,0 1.466,0.447 1.616,1.466 0.096,0.675 0.332,1.761 0.563,2.433 -0.615,0.465 -1.27,0.877 -1.968,1.215 -2.571,1.195 -4.704,3.078 -6.217,5.462 z"
         inkscape:connector-curvature="0"
         style="fill:#009bea" />
      <g
         transform="translate(56.608549,-31.860997)"
         id="g4630">
        <path
           style="fill:#009bea"
           inkscape:connector-curvature="0"
           d="m 36.3604,70.941084 12.479,0 c 3.723,0 6.942,2.053 6.942,6.07 0,2.207 -1.013,4.529 -3.189,5.334 1.789,0.686 2.891,2.65 3.127,5.303 0.09,1.041 0.121,3.57 0.714,4.555 l -6.551,0 c -0.328,-1.068 -0.448,-2.172 -0.536,-3.275 -0.18,-2.023 -0.359,-4.143 -2.948,-4.143 l -3.488,0 0,7.418 -6.551,0 0,-21.262 z m 6.55,9.289 3.425,0 c 1.223,0 2.891,-0.209 2.891,-2.115 0,-1.34 -0.745,-2.115 -3.248,-2.115 l -3.068,0 0,4.23 z"
           id="path4507" />
        <path
           style="fill:#009bea"
           inkscape:connector-curvature="0"
           d="m 70.0804,70.429084 c 6.467,0 10.783,4.648 10.783,11.139 0,6.494 -4.316,11.143 -10.783,11.143 -6.464,0 -10.784,-4.648 -10.784,-11.143 0,-6.49 4.32,-11.139 10.784,-11.139 z m 0,16.979 c 1.668,0 4.229,-1.1 4.229,-5.84 0,-4.734 -2.562,-5.834 -4.229,-5.834 -1.668,0 -4.23,1.1 -4.23,5.834 -10e-4,4.74 2.561,5.84 4.23,5.84 z"
           id="path4509" />
        <path
           style="fill:#009bea"
           inkscape:connector-curvature="0"
           d="m 84.9704,70.941084 6.553,0 0,7.383 6.138,0 0,-7.383 6.551,0 0,21.262 -6.551,0 0,-8.428 -6.138,0 0,8.428 -6.553,0 0,-21.262 z"
           id="path4511" />
        <path
           style="fill:#009bea"
           inkscape:connector-curvature="0"
           d="m 110.5574,70.941084 10.753,0 c 7.091,0 9.591,5.236 9.591,10.6 0,6.521 -3.454,10.662 -10.872,10.662 l -9.473,0 0,-21.262 z m 6.552,15.812 2.563,0 c 4.081,0 4.677,-3.307 4.677,-5.303 0,-1.342 -0.417,-5.062 -5.152,-5.062 l -2.088,0 0,10.365 z"
           id="path4513" />
        <path
           style="fill:#009bea"
           inkscape:connector-curvature="0"
           d="m 134.9234,70.941084 17.606,0 0,5.447 -11.052,0 0,2.65 10.039,0 0,5.062 -10.039,0 0,2.652 11.378,0 0,5.449 -17.933,0 0,-21.26 z"
           id="path4515" />
        <path
           style="fill:#009bea"
           inkscape:connector-curvature="0"
           d="m 191.6454,85.054084 c 0,0.537 0.089,1.014 0.24,1.4 0.475,1.281 1.906,1.549 3.125,1.549 1.073,0 2.713,-0.355 2.713,-1.936 0,-1.102 -0.925,-1.398 -4.587,-2.441 -3.368,-0.955 -7.211,-1.877 -7.211,-6.168 0,-4.914 4.202,-7.029 8.581,-7.029 4.615,0 8.697,1.762 8.875,6.941 l -6.195,0 c 0.119,-0.805 -0.238,-1.34 -0.774,-1.697 -0.536,-0.387 -1.28,-0.535 -1.936,-0.535 -0.894,0 -2.353,0.236 -2.353,1.428 0.117,1.518 3.156,1.848 6.164,2.682 3.01,0.832 5.988,2.232 5.988,6.135 0,5.539 -5.094,7.328 -9.83,7.328 -2.412,0 -9.294,-0.863 -9.354,-7.656 l 6.554,0 z"
           id="path4517" />
        <path
           style="fill:#009bea"
           inkscape:connector-curvature="0"
           d="m 221.4934,78.861084 c -0.119,-0.777 -0.714,-3.127 -3.426,-3.127 -3.068,0 -4.053,2.977 -4.053,5.834 0,2.861 0.984,5.84 4.053,5.84 2.205,0 3.066,-1.547 3.455,-3.545 l 6.434,0 c 0,4.289 -3.486,8.848 -9.709,8.848 -6.883,0 -10.785,-4.855 -10.785,-11.143 0,-6.699 4.23,-11.139 10.785,-11.139 5.838,0.029 9.055,3.098 9.617,8.432 l -6.371,0 z"
           id="path4519" />
        <path
           style="fill:#009bea"
           inkscape:connector-curvature="0"
           d="m 232.7784,70.941084 6.553,0 0,7.383 6.135,0 0,-7.383 6.553,0 0,21.262 -6.553,0 0,-8.428 -6.135,0 0,8.428 -6.553,0 0,-21.262 z"
           id="path4521" />
        <path
           style="fill:#009bea"
           inkscape:connector-curvature="0"
           d="m 279.6044,92.203084 -6.376,0 -2.294,-12.955 -0.058,0 -2.238,12.955 -6.401,0 -5.779,-21.262 6.434,0 2.593,13.131 0.059,0 2.562,-13.131 5.778,0 2.504,13.309 0.058,0 2.648,-13.309 6.467,0 -5.957,21.262 z"
           id="path4523" />
        <path
           style="fill:#009bea"
           inkscape:connector-curvature="0"
           d="m 294.1974,70.941084 6.404,0 7.743,21.262 -6.79,0 -0.896,-3.037 -6.76,0 -0.953,3.037 -6.582,0 7.834,-21.262 z m 5.153,13.668 -1.909,-6.555 -0.057,0 -2.057,6.555 4.023,0 z"
           id="path4525" />
        <path
           style="fill:#009bea"
           inkscape:connector-curvature="0"
           d="m 312.1884,70.941084 12.479,0 c 3.723,0 6.939,2.053 6.939,6.07 0,2.207 -1.014,4.529 -3.188,5.334 1.789,0.686 2.889,2.65 3.127,5.303 0.092,1.041 0.121,3.57 0.717,4.555 l -6.555,0 c -0.33,-1.068 -0.447,-2.172 -0.537,-3.275 -0.174,-2.023 -0.352,-4.143 -2.947,-4.143 l -3.482,0 0,7.418 -6.553,0 0,-21.262 z m 6.553,9.289 3.424,0 c 1.223,0 2.891,-0.209 2.891,-2.115 0,-1.34 -0.746,-2.115 -3.248,-2.115 l -3.066,0 0,4.23 z"
           id="path4527" />
        <path
           style="fill:#009bea"
           inkscape:connector-curvature="0"
           d="m 336.2514,87.080084 9.893,-10.691 -9.322,0 0,-5.447 17.955,0 0,4.762 -9.975,11.051 10.453,0 0,5.449 -19.004,0 0,-5.124 z"
           id="path4529" />
        <g
           id="g4533"
           transform="translate(15.0744,7.1850839)">
          <path
             style="fill:#009bea"
             inkscape:connector-curvature="0"
             d="m 157.704,83.602 c -1.957,1.541 -3.764,2.023 -6.145,2.027 -4.128,0.006 -7.326,-2.791 -7.331,-6.98 -0.004,-2.861 2.435,-4.854 4.782,-6.064 -0.996,-1.082 -1.691,-2.406 -1.693,-3.914 -0.004,-3.436 3.187,-5.582 6.382,-5.586 4.006,-0.006 6.903,1.744 6.907,5.568 0.004,2.441 -1.892,4.463 -3.939,5.551 l 1.66,2.045 c 0.391,-0.512 0.691,-1.086 0.781,-1.627 l 4.972,-0.008 c -0.297,1.838 -1.141,3.768 -2.526,5.217 l 4.409,5.268 -7.051,0.008 -1.208,-1.505 z m -5.675,-7.075 c -0.873,0.453 -2.077,1.24 -2.076,2.324 0.002,1.176 1.028,2.018 2.052,2.016 0.965,-0.002 1.807,-0.635 2.53,-1.299 l -2.506,-3.041 z m 1.74,-5.757 c 0.843,-0.391 1.716,-1.236 1.715,-2.232 -0.001,-0.783 -0.605,-1.445 -1.448,-1.443 -0.753,0 -1.597,0.545 -1.596,1.479 0.001,0.752 0.787,1.565 1.329,2.196 z"
             id="path4535" />
        </g>
      </g>
    </g>
    <rect
       id="rect4537"
       height="63.778999"
       width="318.89801"
       y="28.431084"
       x="36.360401"
       style="fill:none" />
    <rect
       id="rect4539"
       height="106.299"
       width="361.41699"
       y="7.1710839"
       x="15.1014"
       style="fill:none" />
    <g
       id="Schutzzone"
       transform="translate(15.0744,7.1850839)" />
    <g
       id="Auszeichnung_Neu"
       transform="translate(15.0744,7.1850839)" />
  </g>
</svg>
